<svg width="38" height="40" viewBox="0 0 38 40" fill="none" xmlns="http://www.w3.org/2000/svg">
<path d="M3.95272 13.2449C4.491 10.2442 5.86178 7.52381 7.91709 5.37795C8.51405 4.75475 8.4928 3.76569 7.86952 3.16881C7.24624 2.5717 6.25717 2.59319 5.66038 3.21639C3.17811 5.80795 1.52397 9.08498 0.876861 12.6932C0.724517 13.5426 1.28952 14.3547 2.13889 14.507C2.23233 14.5237 2.32499 14.5318 2.41663 14.5318C3.15874 14.5318 3.81717 14.0009 3.95272 13.2449Z" fill="#D946EF"/>
<path d="M34.5883 26.234C34.5016 26.2001 33.2829 25.7089 32.3871 24.5822C31.8501 23.9067 30.8672 23.7946 30.1916 24.3316C29.5161 24.8687 29.4039 25.8516 29.9409 26.5271C30.7487 27.543 31.688 28.2187 32.4052 28.6337C32.2853 29.3067 32.0321 30.0588 31.5891 30.6971C30.8934 31.7 29.9107 32.1875 28.5852 32.1875H9.5243C7.10773 32.1875 6.02945 30.1627 5.71766 28.6255C6.17883 28.3585 6.73242 27.9855 7.28727 27.4862C9.0568 25.8942 9.99219 23.7918 9.99219 21.4062V15.9375C9.99219 11.0069 13.989 6.9418 18.9018 6.87586C18.9154 6.8757 18.9286 6.87383 18.9421 6.87328C18.9537 6.87352 18.9649 6.875 18.9766 6.875C19.0177 6.875 19.0582 6.87195 19.0986 6.86883C19.1348 6.8718 19.1708 6.87531 19.2076 6.87578C24.1634 6.94234 28.1953 11.0074 28.1953 15.9375V18.125C28.1953 18.988 28.8948 19.6875 29.7578 19.6875C30.6208 19.6875 31.3203 18.988 31.3203 18.125V15.9375C31.3203 9.74117 26.5908 4.56164 20.5391 3.83719V1.5625C20.5391 0.699531 19.8395 0 18.9766 0C18.1136 0 17.4141 0.699531 17.4141 1.5625V3.85664C14.7535 4.20984 12.294 5.43414 10.3745 7.38547C8.11281 9.68469 6.86719 12.7219 6.86719 15.9375V21.4062C6.86719 24.8955 3.72352 26.1566 3.52094 26.2341C2.89305 26.4524 2.49219 27.0374 2.49219 27.7027C2.49219 29.3426 3.07641 31.1355 4.05492 32.499C5.35719 34.3133 7.29969 35.3125 9.5243 35.3125H14.3672C14.3672 37.8972 16.47 40 19.0547 40C21.6394 40 23.7422 37.8972 23.7422 35.3125H28.5851C31.5649 35.3125 33.2597 33.7713 34.1566 32.4786C35.4748 30.5788 35.6171 28.5057 35.6171 27.7027C35.6172 27.0371 35.2164 26.4522 34.5883 26.234ZM19.0547 36.875C18.1931 36.875 17.4922 36.1741 17.4922 35.3125H20.6172C20.6172 36.1741 19.9163 36.875 19.0547 36.875Z" fill="#6366F1"/>
<path d="M37.1234 12.7404C36.4701 9.09873 34.7528 5.68685 32.2877 3.13318C31.6884 2.51232 30.6993 2.4949 30.0784 3.09419C29.4575 3.69357 29.4401 4.68271 30.0394 5.30357C32.079 7.41646 33.5024 10.2535 34.0475 13.2922C34.1831 14.0483 34.8415 14.579 35.5836 14.579C35.6752 14.579 35.7681 14.571 35.8613 14.5543C36.7107 14.4019 37.2758 13.5898 37.1234 12.7404Z" fill="#D946EF"/>
</svg>
